<?xml version="1.0" encoding="utf-8"?>
<!-- Generator: Adobe Illustrator 23.0.5, SVG Export Plug-In . SVG Version: 6.00 Build 0)  -->
<svg version="1.1" id="Capa_1" xmlns="http://www.w3.org/2000/svg" xmlns:xlink="http://www.w3.org/1999/xlink" x="0px" y="0px"
	 viewBox="0 0 169.4 190.3" style="enable-background:new 0 0 169.4 190.3;" xml:space="preserve">
<style type="text/css">
	.st0{display:none;fill:#FFFFFF;stroke:#000000;stroke-width:4;}
	.st1{fill:#87B420;}
</style>
<path class="st0" d="M-14.9,62.3c0,0-21-57,18-67s49-4,65,8s30,41,53,27s66,4,58,32s-5,44,18,57s22,46,0,45s-54-40-68-16
	s-40,88-83,48s11-61-11-80s-79-7-70-41C-34.9,75.3-27.9,57.3-14.9,62.3z"/>
<g>
	<path class="st1" d="M128.4,152.3c0,7.8-6.4,14.2-14.2,14.2c-7.8,0-14.2-6.4-14.2-14.2c0-5.6,3.3-10.5,8.1-12.8h12.3
		C125.1,141.8,128.4,146.7,128.4,152.3z M169.4,27.6c0,3.4-2.7,6.1-6.1,6.1h-23.4v26.1h15.7c3.4,0,6.1,2.7,6.1,6.1
		c0,3.4-2.7,6.1-6.1,6.1h-15.7v26.1h8.1c3.4,0,6.1,2.7,6.1,6.1c0,3.4-2.7,6.1-6.1,6.1h-8.1v13.9c7.8,7.2,12.3,17.2,12.3,28
		c0,20.9-17,38-38,38c-20.9,0-38-17-38-38c0-10.8,4.4-20.8,12.3-28V25.7C88.5,11.5,100,0,114.2,0c12.7,0,23.3,9.3,25.4,21.5h23.8
		C166.7,21.5,169.4,24.2,169.4,27.6z M139.9,152.3c0-8-3.6-15.4-9.9-20.3c-1.5-1.2-2.4-2.9-2.4-4.8V25.7c0-7.4-6-13.4-13.4-13.4
		c-7.4,0-13.4,6-13.4,13.4v101.5c0,1.9-0.9,3.7-2.4,4.8c-6.3,4.9-9.9,12.3-9.9,20.3c0,14.2,11.5,25.7,25.7,25.7
		C128.4,178,139.9,166.5,139.9,152.3z"/>
</g>
<g>
	<g>
		<path class="st1" d="M114.2,158.2c3.1,0,6.1-2.8,6-6c-0.1-3.3-2.6-6-6-6c-3.1,0-6.1,2.8-6,6C108.3,155.4,110.8,158.2,114.2,158.2
			L114.2,158.2z"/>
	</g>
</g>
<g>
	<g>
		<path class="st1" d="M120.2,152.2c0-7.5,0-15,0-22.5c0-12,0-23.9,0-35.9c0-2.8,0-5.5,0-8.3c0-3.1-2.8-6.1-6-6c-3.3,0.1-6,2.6-6,6
			c0,7.5,0,15,0,22.5c0,12,0,23.9,0,35.9c0,2.8,0,5.5,0,8.3c0,3.1,2.8,6.1,6,6C117.4,158,120.2,155.5,120.2,152.2L120.2,152.2z"/>
	</g>
</g>
<g>
	<g>
		<path class="st1" d="M47.3,4.3c-7.2,5.2-11.6,13.8-12.2,22.6c-0.2,3.6,0.3,7.4,1.4,10.9c1.4,4.6,3.9,8.6,5.9,12.9
			c0.1,0.3,0.2,0.5,0.4,0.8c0.3,0.6-0.2-0.4-0.2-0.4c0,0.3,0.5,1.2,0.6,1.5c0.3,1,0.6,2,0.9,3c0.2,0.9,0.4,1.7,0.5,2.6
			c0.2,1.3-0.1-1.1,0-0.1c0,0.5,0.1,1,0.1,1.4c0,0.8,0,1.5,0,2.3c0,0.3,0,0.7-0.1,1c0,0.5-0.3,2,0-0.1c-0.2,1.2-0.4,2.4-0.8,3.6
			c-0.1,0.3-0.2,0.6-0.3,1c-0.1,0.1-0.1,0.3-0.2,0.4c-0.3,0.9,0.2-0.7,0.3-0.7c-0.3,0.3-0.5,1.1-0.7,1.5c-0.5,0.9-1,1.7-1.5,2.4
			c-0.6,0.8,0.4-0.5,0.5-0.7c-0.1,0.1-0.2,0.3-0.3,0.4c-0.2,0.2-0.3,0.4-0.5,0.6c-0.2,0.2-0.3,0.4-0.5,0.5c-2.3,2.1-2.3,6.3,0,8.3
			c2.5,2.3,5.9,2.2,8.3,0c2-1.8,3.7-4.4,4.8-6.9c2.9-6.5,3.4-13.5,1.7-20.5c-1.1-4.6-3.3-8.8-5.5-12.9c-0.3-0.5-0.5-1-0.8-1.5
			c-0.1-0.2-0.2-0.4-0.3-0.6c-0.5-1,0,0.2,0.1,0.3c-0.5-0.8-0.8-2-1.1-2.9c-0.3-0.8-0.5-1.7-0.7-2.6c-0.1-0.4-0.2-0.8-0.2-1.2
			c0-0.2-0.1-0.4-0.1-0.7c-0.2-1,0.1,1.2,0.1,0.4c-0.1-1.5-0.2-3-0.1-4.5c0-0.4,0.1-0.7,0.1-1.1c0-0.6-0.1,1-0.1,0.9
			c0-0.1,0.1-0.4,0.1-0.5c0.1-0.7,0.3-1.4,0.4-2c0.2-0.6,0.3-1.2,0.5-1.8c0.1-0.3,0.2-0.5,0.3-0.8c0.5-1.3-0.6,1.2-0.1,0.2
			c0.5-1,1-2,1.6-3c0.3-0.5,0.6-0.9,0.9-1.4c0.1-0.1,0.1-0.2,0.2-0.2c0.5-0.7-0.9,1.1-0.5,0.7c0.2-0.2,0.3-0.4,0.5-0.6
			c0.5-0.7,1.1-1.3,1.7-1.9c0.4-0.4,0.9-0.8,1.3-1.2c1-0.8-1.3,1-0.6,0.5c2.5-1.8,4-5.2,2.1-8.1C53.8,3.9,50,2.4,47.3,4.3L47.3,4.3z
			"/>
	</g>
</g>
<g>
	<g>
		<path class="st1" d="M15.6,4.3C8.3,9.5,3.9,18.1,3.4,26.9c-0.2,3.6,0.3,7.4,1.4,10.9c1.4,4.6,3.9,8.6,5.9,12.9
			c0.1,0.3,0.2,0.5,0.4,0.8c0.3,0.6-0.2-0.4-0.2-0.4c0,0.3,0.5,1.2,0.6,1.5c0.3,1,0.6,2,0.9,3c0.2,0.9,0.4,1.7,0.5,2.6
			c0.2,1.3-0.1-1.1,0-0.1c0,0.5,0.1,1,0.1,1.4c0,0.8,0,1.5,0,2.3c0,0.3,0,0.7-0.1,1c0,0.5-0.3,2,0-0.1c-0.2,1.2-0.4,2.4-0.8,3.6
			c-0.1,0.3-0.2,0.6-0.3,1c-0.1,0.1-0.1,0.3-0.2,0.4c-0.3,0.9,0.2-0.7,0.3-0.7c-0.3,0.3-0.5,1.1-0.7,1.5c-0.5,0.9-1,1.7-1.5,2.4
			c-0.6,0.8,0.4-0.5,0.5-0.7c-0.1,0.1-0.2,0.3-0.3,0.4c-0.2,0.2-0.3,0.4-0.5,0.6c-0.2,0.2-0.3,0.4-0.5,0.5c-2.3,2.1-2.3,6.3,0,8.3
			c2.5,2.3,5.9,2.2,8.3,0c2-1.8,3.7-4.4,4.8-6.9c2.9-6.5,3.4-13.5,1.7-20.5c-1.1-4.6-3.3-8.8-5.5-12.9c-0.3-0.5-0.5-1-0.8-1.5
			c-0.1-0.2-0.2-0.4-0.3-0.6c-0.5-1,0,0.2,0.1,0.3c-0.5-0.8-0.8-2-1.1-2.9c-0.3-0.8-0.5-1.7-0.7-2.6c-0.1-0.4-0.2-0.8-0.2-1.2
			c0-0.2-0.1-0.4-0.1-0.7c-0.2-1,0.1,1.2,0.1,0.4c-0.1-1.5-0.2-3-0.1-4.5c0-0.4,0.1-0.7,0.1-1.1c0-0.6-0.1,1-0.1,0.9
			c0-0.1,0.1-0.4,0.1-0.5c0.1-0.7,0.3-1.4,0.4-2c0.2-0.6,0.3-1.2,0.5-1.8c0.1-0.3,0.2-0.5,0.3-0.8c0.5-1.3-0.6,1.2-0.1,0.2
			c0.5-1,1-2,1.6-3c0.3-0.5,0.6-0.9,0.9-1.4c0.1-0.1,0.1-0.2,0.2-0.2c0.5-0.7-0.9,1.1-0.5,0.7c0.2-0.2,0.3-0.4,0.5-0.6
			c0.5-0.7,1.1-1.3,1.7-1.9c0.4-0.4,0.9-0.8,1.3-1.2c1-0.8-1.3,1-0.6,0.5c2.5-1.8,4-5.2,2.1-8.1C22,3.9,18.3,2.4,15.6,4.3L15.6,4.3z
			"/>
	</g>
</g>
</svg>
