<svg xmlns="http://www.w3.org/2000/svg" viewBox="0 0 91.34 116.41"><defs><style>.cls-1{fill:#87b420;}</style></defs><title>climatizacion-icono</title><g id="Capa_2" data-name="Capa 2"><g id="Layer_1" data-name="Layer 1"><path class="cls-1" d="M89.63,38.07H79.74a1.71,1.71,0,0,0,0,3.41h9.89a1.71,1.71,0,1,0,0-3.41Z"/><path class="cls-1" d="M79.74,27.66h4.49a1.71,1.71,0,1,0,0-3.41H79.74a1.71,1.71,0,0,0,0,3.41Z"/><path class="cls-1" d="M79.74,13.84h6.08a1.71,1.71,0,1,0,0-3.41H79.74a1.71,1.71,0,0,0,0,3.41Z"/><path class="cls-1" d="M85.82,65.71H79.74a1.71,1.71,0,0,0,0,3.41h6.08a1.71,1.71,0,1,0,0-3.41Z"/><path class="cls-1" d="M79.74,55.3h4.49a1.71,1.71,0,1,0,0-3.41H79.74a1.71,1.71,0,0,0,0,3.41Z"/><path class="cls-1" d="M28.9,37c2.82,1.5,3,1.85,3.74,1.85a1.71,1.71,0,0,0,.84-3.2L30.57,34l2.14-.87A1.71,1.71,0,0,0,31.41,30l-4.64,1.9L20.66,28.5l6.11-3.42c4.78,1.92,4.7,2,5.29,2a1.71,1.71,0,0,0,.65-3.28L30.57,23l2.91-1.63a1.7,1.7,0,0,0-1.67-3L28.9,20l.37-2.29a1.7,1.7,0,1,0-3.36-.54l-.81,5-6.22,3.48V18.46l3.93-3.12a1.71,1.71,0,1,0-2.12-2.68L18.88,14.1V10.77a1.71,1.71,0,1,0-3.41,0V14.1l-1.81-1.44a1.71,1.71,0,1,0-2.12,2.68l3.93,3.12v7.13L9.25,22.11l-.81-5a1.7,1.7,0,1,0-3.36.54L5.45,20,2.54,18.35a1.7,1.7,0,1,0-1.67,3L3.78,23l-2.14.88A1.71,1.71,0,0,0,2.94,27l4.64-1.91,6.1,3.42-6.1,3.41L2.94,30a1.71,1.71,0,0,0-1.3,3.16L3.78,34,.87,35.67a1.71,1.71,0,0,0,.84,3.2c.75,0,.92-.35,3.74-1.85L5.08,39.3a1.7,1.7,0,1,0,3.36.55l.81-5,6.22-3.48v7.12l-3.93,3.13a1.7,1.7,0,1,0,2.12,2.67l1.81-1.44v3.34a1.71,1.71,0,0,0,3.41,0V42.89c1.57,1.14,1.91,1.81,2.87,1.81a1.7,1.7,0,0,0,1.06-3l-3.93-3.13V31.41l6.22,3.48.81,5a1.7,1.7,0,1,0,3.36-.55Z"/><path class="cls-1" d="M72.34,70.44v-55a15.43,15.43,0,0,0-30.85,0v55a25.58,25.58,0,1,0,30.85,0ZM56.91,113A22.16,22.16,0,0,1,44.18,72.7a1.71,1.71,0,0,0,.72-1.39V15.42a12,12,0,0,1,24,0V71.31a1.71,1.71,0,0,0,.72,1.39A22.16,22.16,0,0,1,56.91,113Z"/><path class="cls-1" d="M64.38,73.82V15.42a7.47,7.47,0,0,0-14.93,0V20.7a1.71,1.71,0,1,0,3.41,0V15.42a4.06,4.06,0,0,1,8.11,0V66H52.86V27.54a1.71,1.71,0,0,0-3.41,0V73.82a18.19,18.19,0,1,0,14.93,0Zm-7.47,31.36a14.77,14.77,0,0,1-5.16-28.62A1.71,1.71,0,0,0,52.86,75V69.37H61V75a1.71,1.71,0,0,0,1.11,1.6,14.78,14.78,0,0,1-5.17,28.62Z"/></g></g></svg>