<svg xmlns="http://www.w3.org/2000/svg" viewBox="0 0 102.64 102.64"><defs><style>.cls-1{fill:#87b420;}</style></defs><title>cortinas-icono</title><g id="Capa_2" data-name="Capa 2"><g id="Layer_1" data-name="Layer 1"><path class="cls-1" d="M97.67,16.55a1.65,1.65,0,0,0,1.66-1.65v-5H101a1.65,1.65,0,0,0,1.66-1.65V1.66A1.66,1.66,0,0,0,101,0H1.66A1.66,1.66,0,0,0,0,1.66V8.28A1.65,1.65,0,0,0,1.66,9.93H3.31v5A1.65,1.65,0,0,0,5,16.55H43v3.32H18.21a1.65,1.65,0,0,0-1.66,1.65v44.7H1.66A1.65,1.65,0,0,0,0,67.87V74.5a1.65,1.65,0,0,0,1.66,1.65H43V97.67a1.66,1.66,0,0,0,.49,1.17L45.67,101a5.77,5.77,0,0,0,8,0l1-1a2.41,2.41,0,0,1,3.31,0l1,1a5.79,5.79,0,0,0,8,0l1-1a2.41,2.41,0,0,1,3.31,0l1,1a5.77,5.77,0,0,0,8,0l1-1a2.41,2.41,0,0,1,3.31,0l1,1a5.64,5.64,0,0,0,8,0l2.14-2.14A1.66,1.66,0,0,0,96,97.67V76.15h5a1.65,1.65,0,0,0,1.66-1.65V67.87A1.65,1.65,0,0,0,101,66.22H96V16.55ZM3.31,3.31h96V6.62h-96ZM6.62,9.93H96v3.31H6.62ZM19.87,23.18H43v3.31H24.83a1.65,1.65,0,0,0-1.65,1.65V44.7a1.65,1.65,0,0,0,1.65,1.65H43v3.31H24.83a1.66,1.66,0,0,0-1.65,1.66v14.9H19.87ZM43,29.8V43H26.49V29.8ZM43,53V66.22H26.49V53ZM3.31,72.84V69.53H43v3.31Zm49,24.83-1,1a2.39,2.39,0,0,1-3.31,0L46.35,97V16.55h8.28V96.33A5.45,5.45,0,0,0,52.29,97.67Zm13.24,0-1,1a2.39,2.39,0,0,1-3.31,0l-1-1a5.4,5.4,0,0,0-2.34-1.34V16.55h9.94V96.33A5.49,5.49,0,0,0,65.53,97.67Zm13.25,0-1,1a2.39,2.39,0,0,1-3.31,0l-1-1a5.51,5.51,0,0,0-2.34-1.34V16.55h9.93V96.33A5.45,5.45,0,0,0,78.78,97.67ZM99.33,69.53v3.31H96V69.53ZM92.71,97l-1.66,1.65a2.39,2.39,0,0,1-3.31,0l-1-1a5.45,5.45,0,0,0-2.34-1.34V16.55h8.28Z"/><path class="cls-1" d="M11.59,79.46H39.73v3.31H11.59Z"/><path class="cls-1" d="M11.59,92.71H39.73V96H11.59Z"/><path class="cls-1" d="M8.28,86.09H33.11V89.4H8.28Z"/><path class="cls-1" d="M36.42,86.09h3.31V89.4H36.42Z"/></g></g></svg>