<svg id="Layer_1" data-name="Layer 1" xmlns="http://www.w3.org/2000/svg" viewBox="0 0 1197.91 1068"><defs><style>.cls-1{fill:#26265c;}.cls-2{fill:#1f1f49;opacity:0.3;}.cls-3{fill:#4141e5;opacity:0.67;}</style></defs><title>Mesa de trabajo 49</title><path class="cls-1" d="M701.59,797c18.31-193.61,134.2-375.49,301.95-473.87,47-27.59,99.11-50,134.48-91.52,54.72-64.19,52.17-169.07-3.88-231.54H0V1081.43H743.27C707.66,991.44,692.47,893.38,701.59,797Z"/><path class="cls-2" d="M613.67,1081.44a671.14,671.14,0,0,1-35.19-188.62c-5.35-134.8,31.19-271,103.31-385C739.85,416.06,819.38,339.59,880,249.45,929.48,175.8,966.19,86.83,960.65.09H0V1081.43Z"/><path class="cls-3" d="M378.85,1081.43C330.15,1010,267,947.92,223.65,872.85,127.76,706.77,146,482.14,267.48,333.73c51.87-63.38,119.34-112.5,171.77-175.41C476.69,113.39,506.35,57,511.09,0H0V1081.43Z"/></svg>