<svg xmlns="http://www.w3.org/2000/svg" viewBox="0 0 86.06 97.78"><defs>
<style>.cls-1{fill:#87b420;fill-rule:evenodd;}</style>
</defs>
<title>multimedia</title><g id="Capa_2" data-name="Capa 2">
<g id="Layer_1" data-name="Layer 1">
<path class="cls-1" d="M84.15,39.47H19L81.57,21.34A1.92,1.92,0,0,0,82.88,19L79.6,7.67A10.68,10.68,0,0,0,69.38,0a10.52,10.52,0,0,0-2.95.42l-58.76,17A10.66,10.66,0,0,0,.42,30.61l3.2,11V87.16A10.64,10.64,0,0,0,14.25,97.78h23a1.91,1.91,0,0,0,0-3.82h-23a6.81,6.81,0,0,1-6.81-6.8v-26h74.8v26A6.82,6.82,0,0,1,75.43,94h-23a1.91,1.91,0,1,0,0,3.82h23A10.64,10.64,0,0,0,86.06,87.16V41.38A1.92,1.92,0,0,0,84.15,39.47ZM50.47,57.35l8.11-14.06H69.14L61,57.35Zm-15,0,8.12-14.06H54.17L46.06,57.35Zm-15,0,8.11-14.06H39.21L31.09,57.35Zm7.1-24.73-13.59-13,10.18-2.95a3.31,3.31,0,0,0,.25.3L38.07,30l-10.18,3A1.42,1.42,0,0,0,27.64,32.62Zm25.59-24L66.82,21.64,56.64,24.59a1.81,1.81,0,0,0-.25-.3l-13.59-13L53,8.29A1.81,1.81,0,0,0,53.23,8.59ZM38.86,12.75,52.45,25.8,42.26,28.75a1.68,1.68,0,0,0-.25-.29l-13.58-13,10.18-2.95A1.68,1.68,0,0,0,38.86,12.75ZM67.5,4.09a6.63,6.63,0,0,1,1.88-.27,6.85,6.85,0,0,1,6.55,4.91l2.75,9.47L71,20.42a1.68,1.68,0,0,0-.25-.29l-13.59-13ZM4.67,24.37a6.78,6.78,0,0,1,4.07-3.26l1.12-.33a1.42,1.42,0,0,0,.25.3L23.7,34.13,6.83,39,4.09,29.54A6.81,6.81,0,0,1,4.67,24.37ZM7.44,43.29h16.8L16.13,57.35H7.44Zm58,14.06,8.11-14.06h8.69V57.35Z"/>
<path class="cls-1" d="M58,77.37a1.9,1.9,0,0,0-.95-1.65L40.31,66a1.91,1.91,0,0,0-2.86,1.65V87.06a1.9,1.9,0,0,0,.95,1.65,2,2,0,0,0,1,.26,1.89,1.89,0,0,0,1-.26L57.09,79A1.9,1.9,0,0,0,58,77.37ZM41.26,83.75V71l11.06,6.38Z"/>
<path class="cls-1" d="M44.84,94a1.91,1.91,0,1,0,1.91,1.91A1.92,1.92,0,0,0,44.84,94Z"/></g></g></svg>