<svg xmlns="http://www.w3.org/2000/svg" viewBox="0 0 129.01 110.23"><defs><style>.cls-1{fill:#87b420;}</style></defs><title>seguridad-icono</title><g id="Capa_2" data-name="Capa 2"><g id="Layer_1" data-name="Layer 1"><path class="cls-1" d="M127.46,35.33,32.51.15a2.35,2.35,0,0,0-3,1.38h0L19,30.15a2.35,2.35,0,0,0,1.39,3h0l11,4L29,43.81a2.34,2.34,0,0,0,1.39,3l22,8.08-1.62,4.41a9.27,9.27,0,0,0,3.34,10.81v12H22.53a11.76,11.76,0,0,0-8.38-6.8V70.36A2.35,2.35,0,0,0,11.8,68H2.35A2.35,2.35,0,0,0,0,70.36v37.52a2.35,2.35,0,0,0,2.35,2.35H11.8a2.35,2.35,0,0,0,2.35-2.35V103a11.76,11.76,0,0,0,8.38-6.8H54.09V98.5a7,7,0,1,0,14.07,0v-26a9.32,9.32,0,0,0,4.6-5.12L74.38,63l19.81,7.27a2.24,2.24,0,0,0,.81.15,2.36,2.36,0,0,0,2.2-1.54l.88-2.39A14.06,14.06,0,0,0,113.51,46.9l14.22-7.29a2.36,2.36,0,0,0,1-3.16,2.33,2.33,0,0,0-1.28-1.13ZM58.78,72.25l1.94.71a9.59,9.59,0,0,0,2.75.54v8.58H58.78ZM9.46,105.54H4.69V72.7H9.46Zm9.38-14.07a7.07,7.07,0,0,1-4.69,6.63v-18a7.08,7.08,0,0,1,4.69,6.64Zm4.76-4.69H63.47v4.69H23.6Zm37.53,14.07a2.35,2.35,0,0,1-2.35-2.35V96.16h4.69V98.5A2.35,2.35,0,0,1,61.13,100.85ZM70,61.38l-1.62,4.4a4.69,4.69,0,0,1-6,2.78L57.93,67a4.7,4.7,0,0,1-2.79-6h0l1.62-4.4,11.89,4.36Zm23.63,3.68L34.17,43.23l1.62-4.4L71,51.76a2.39,2.39,0,0,0,2.42-.49L80,45.07l18.45,6.78Zm15.86-9.17A9.43,9.43,0,0,1,99.73,62l3.63-9.87,5.92-3A9.34,9.34,0,0,1,109.47,55.89Zm-7.92-8.11a2.41,2.41,0,0,0-.37.07L80.27,40.17a2.32,2.32,0,0,0-2.41.49l-6.59,6.2L24.19,29.57,33.08,5.36l87.75,32.51Z"/><path class="cls-1" d="M43.42,31.64,45,27.23l4.4,1.62-1.62,4.4Z"/><path class="cls-1" d="M52.23,34.87l1.61-4.41,4.41,1.62-1.62,4.4Z"/><path class="cls-1" d="M61,38.1l1.62-4.4,4.4,1.62-1.61,4.4Z"/></g></g></svg>