<svg xmlns="http://www.w3.org/2000/svg" viewBox="0 0 156.25 48.31"><defs><style>.cls-1{fill:#94c120;}.cls-2{fill:#26265c;}</style></defs><title>logo Verdant color</title><g id="Capa_4" data-name="Capa 4"><path class="cls-1" d="M36.35,26l-1.69-2.66,0,0c-.17-.28-.47-.75-.89-1.4l-1.08-1.65q-3.15-5-4.86-7.83a.48.48,0,0,1-.1-.33.65.65,0,0,1,.29-.57.59.59,0,0,1,.32-.08.63.63,0,0,1,.57.31q2.34,3.86,4.86,7.81l1.12,1.72s.4.63,1.16,1.85l.85,1.34c.38-.61.77-1.26,1.18-2q2-3.35,6.28-10.69a.63.63,0,0,1,.57-.31.68.68,0,0,1,.32.07.68.68,0,0,1,.29.57.81.81,0,0,1-.08.34q-4.29,7.33-6.28,10.69c-.63,1-1.06,1.71-1.3,2.14-.06.11-.16.26-.28.46a2.51,2.51,0,0,1-.29.41.72.72,0,0,1-.41.14.61.61,0,0,1-.53-.32"/><path class="cls-1" d="M49.4,25.58a2,2,0,0,1,0-.4q0-6.9,0-12.75v-.25a.53.53,0,0,1,.19-.43.78.78,0,0,1,.5-.17l3.19,0h8.18a.61.61,0,0,1,.46.17.59.59,0,0,1,.19.46.61.61,0,0,1-.19.45.58.58,0,0,1-.44.19l-5,0h-.19l-5.61,0c0,1.57,0,3.73,0,6.5H54.4l1.92,0c.62,0,1,0,1.23,0a.65.65,0,0,1,.46.18.59.59,0,0,1,.19.45.78.78,0,0,1-.21.45.6.6,0,0,1-.44.2c-.2,0-.61,0-1.23,0l-1.92,0H50.66v4.07H61.42a.61.61,0,0,1,.45.19.6.6,0,0,1,.18.44.64.64,0,0,1-.18.45.63.63,0,0,1-.47.2H51.27l-1.16,0c-.4,0-.63-.14-.71-.43"/><path class="cls-1" d="M66.46,26.06a.61.61,0,0,1-.2-.46q0-2.69,0-7.11t0-6.59a1,1,0,0,1,0-.2.67.67,0,0,1,.21-.36.6.6,0,0,1,.42-.15L69,11.13q1.53-.06,2.85-.06a28.29,28.29,0,0,1,3.78.22,6.7,6.7,0,0,1,2.6.81,4,4,0,0,1,1.46,1.73,6,6,0,0,1,.55,2.5,5.67,5.67,0,0,1-.46,2.26,4.54,4.54,0,0,1-1.43,1.89,3.36,3.36,0,0,1-1,.55l1.18,1.75.06.08c.7,1.08,1.18,1.8,1.44,2.17a.65.65,0,0,1,.12.37.64.64,0,0,1-.26.51.65.65,0,0,1-.37.12.64.64,0,0,1-.53-.26c-.2-.26-.69-1-1.48-2.2l-.06-.08c-.66-1-1.13-1.7-1.42-2.06l-.55.09a24.76,24.76,0,0,1-4,.26l-2.19,0-1.81,0c0,2.3,0,3.59,0,3.88a.67.67,0,0,1-.17.46.59.59,0,0,1-.46.19.61.61,0,0,1-.45-.19m5.16-5.56a23.11,23.11,0,0,0,3.76-.24,5.36,5.36,0,0,0,2.14-.71,3.21,3.21,0,0,0,1.16-1.49A4.45,4.45,0,0,0,79,16.33a4.54,4.54,0,0,0-.4-1.91,2.63,2.63,0,0,0-1.06-1.26,5.87,5.87,0,0,0-2.07-.59,24.21,24.21,0,0,0-3.6-.22c-.88,0-1.81,0-2.81.06l-1.5,0c0,2.76,0,5.42,0,8l1.83,0Z"/><path class="cls-1" d="M84.66,26a.7.7,0,0,1-.23-.5l-.1-13.11a.74.74,0,0,1,.18-.49.59.59,0,0,1,.47-.22c1.3,0,2.36,0,3.17,0l2.4,0c.84,0,1.5,0,2,.07A9.11,9.11,0,0,1,94,12a8.48,8.48,0,0,1,1.55.57A5.64,5.64,0,0,1,98.13,15a7.93,7.93,0,0,1,.94,3.93A8.88,8.88,0,0,1,98.15,23a5,5,0,0,1-2.42,2.45,9.9,9.9,0,0,1-3.07.63c-1.16.1-3.13.16-5.93.16H85.18a.91.91,0,0,1-.52-.27m2.19-1c2.47,0,4.36,0,5.69-.16a13.82,13.82,0,0,0,2.09-.3A3.5,3.5,0,0,0,96,23.82a4.51,4.51,0,0,0,1.06-1.43A7.79,7.79,0,0,0,97.79,19a7.11,7.11,0,0,0-.65-3.12A4.35,4.35,0,0,0,95,13.69a8.76,8.76,0,0,0-1.79-.6,11.93,11.93,0,0,0-2.34-.19l-2.72,0c-.64,0-1.49,0-2.54,0l.08,12Z"/><path class="cls-1" d="M117,26.11a.68.68,0,0,1-.32-.09.75.75,0,0,1-.27-.23v0l-1.3-2.28-.74-1.28v0l0-.06-5.4,0h-4.7l-2.09,3.66a.57.57,0,0,1-.23.23.65.65,0,0,1-.32.09.56.56,0,0,1-.33-.1.59.59,0,0,1-.32-.51.61.61,0,0,1,.1-.34l.91-1.59q3.6-6.33,5.25-9.17c.54-1,.94-1.7,1.2-2.11l.34-.61a.63.63,0,0,1,.57-.31.59.59,0,0,1,.55.35c.54,1,1.17,2.15,1.91,3.43s1.21,2.1,1.43,2.5L114,19l.53.93c.57,1,.88,1.51,1,1.59l.35.63.38.67c.38.65.81,1.43,1.31,2.34a.59.59,0,0,1,.08.32.6.6,0,0,1-.31.53.61.61,0,0,1-.3.08m-4.35-6.89c-1.61-2.78-2.74-4.76-3.38-5.92l-1,1.67L105,20.85c.9,0,1.71,0,2.41,0h6.23Z"/><path class="cls-1" d="M135.6,26.17a.6.6,0,0,1-.39-.16q-7.05-6.57-9.57-9l-2.77-2.68-.06-.06-.79-.73,0,6c0,3.21,0,5.2,0,6a.63.63,0,0,1-.18.46.51.51,0,0,1-.45.17.61.61,0,0,1-.45-.19.59.59,0,0,1-.2-.44l0-7,0-6.31a.63.63,0,0,1,.19-.46.58.58,0,0,1,.44-.19.83.83,0,0,1,.51.19c.88.78,1.49,1.33,1.81,1.66l.06.06,2.78,2.69,4.19,4,4.29,4q0-8,0-12a.63.63,0,0,1,.2-.47.64.64,0,0,1,.45-.18.6.6,0,0,1,.44.18.61.61,0,0,1,.19.45q0,2.38,0,6.7t0,6.78v0a.63.63,0,0,1-.18.46.58.58,0,0,1-.45.19Z"/><path class="cls-1" d="M156.06,11.77a.63.63,0,0,1,.19.44.66.66,0,0,1-.19.46.58.58,0,0,1-.44.19l-7.05,0q0,8.58.06,12.82a.65.65,0,0,1-.18.46.6.6,0,0,1-.45.19.63.63,0,0,1-.46-.18.58.58,0,0,1-.19-.45q-.06-4.26-.06-12.84c-1.84,0-4.2,0-7.1.06a.61.61,0,0,1-.45-.19.67.67,0,0,1-.18-.46.53.53,0,0,1,.16-.44.65.65,0,0,1,.45-.19q3.29-.06,5.94-.06l2.87,0h.59l3.05,0,3,0a.61.61,0,0,1,.44.19"/><path class="cls-2" d="M57.49,44.39a4.6,4.6,0,0,0,3.76-1.82l2,2.06a7.55,7.55,0,0,1-10.93.64,6.86,6.86,0,0,1-2.09-5.15,7,7,0,0,1,2.13-5.19,7.19,7.19,0,0,1,5.21-2.08,7.42,7.42,0,0,1,5.76,2.62l-1.94,2.2a4.58,4.58,0,0,0-3.68-1.84,4.3,4.3,0,0,0-3,1.15,4,4,0,0,0-1.25,3.1,4.21,4.21,0,0,0,1.18,3.13,3.87,3.87,0,0,0,2.86,1.18"/><path class="cls-2" d="M77.17,45.22a7.62,7.62,0,0,1-10.44,0,7.32,7.32,0,0,1,0-10.3,7.62,7.62,0,0,1,10.44,0,7.32,7.32,0,0,1,0,10.3m-1.06-5.14a4.59,4.59,0,0,0-1.2-3.19,4,4,0,0,0-5.9,0,4.59,4.59,0,0,0-1.2,3.19A4.53,4.53,0,0,0,69,43.26a4,4,0,0,0,5.9,0,4.53,4.53,0,0,0,1.2-3.18"/><polygon class="cls-2" points="94.45 38.35 90.67 45.99 88.81 45.99 85.05 38.35 85.05 47.15 81.93 47.15 81.93 33.17 86.15 33.17 89.75 40.85 93.37 33.17 97.57 33.17 97.57 47.15 94.45 47.15 94.45 38.35"/><polygon class="cls-2" points="110.61 33.17 110.61 35.91 104.13 35.91 104.13 38.93 110.29 38.93 110.29 41.67 104.13 41.67 104.13 47.15 101.01 47.15 101.01 33.17 110.61 33.17"/><path class="cls-2" d="M125,45.22a7.62,7.62,0,0,1-10.44,0,7.32,7.32,0,0,1,0-10.3,7.62,7.62,0,0,1,10.44,0,7.32,7.32,0,0,1,0,10.3M124,40.08a4.59,4.59,0,0,0-1.2-3.19,4,4,0,0,0-5.9,0,4.59,4.59,0,0,0-1.2,3.19,4.53,4.53,0,0,0,1.2,3.18,4,4,0,0,0,5.9,0,4.53,4.53,0,0,0,1.2-3.18"/><path class="cls-2" d="M141.11,37.81q0,3.36-2.66,4.34l3.54,5h-3.84l-3.1-4.46h-2.16v4.46h-3.12v-14h5.3c2.17,0,3.72.37,4.65,1.1a4.25,4.25,0,0,1,1.39,3.54m-3.76,1.66a2.08,2.08,0,0,0,.58-1.65,1.77,1.77,0,0,0-.6-1.55,3.84,3.84,0,0,0-2.1-.42h-2.34V40h2.28a3.33,3.33,0,0,0,2.18-.52"/><polygon class="cls-2" points="149.95 35.87 149.95 47.15 146.83 47.15 146.83 35.87 142.87 35.87 142.87 33.17 153.91 33.17 153.91 35.87 149.95 35.87"/><path class="cls-2" d="M34,37.72a1.16,1.16,0,0,1-.94-.48L17.56,15.51,2.1,37.24A1.16,1.16,0,0,1,.21,35.9L16.62,12.84a1.17,1.17,0,0,1,1.89,0L34.91,35.9a1.14,1.14,0,0,1-.27,1.61,1.18,1.18,0,0,1-.67.21"/><path class="cls-1" d="M20.26,28.94a3.16,3.16,0,1,1-3.15-3.16,3.15,3.15,0,0,1,3.15,3.16"/><path class="cls-1" d="M43.85,48.31H17.06A1.08,1.08,0,0,1,16,47.23V29.59a1.08,1.08,0,0,1,2.16,0V46.15H42.77V29.59a1.08,1.08,0,1,1,2.16,0V47.23a1.08,1.08,0,0,1-1.08,1.08"/><path class="cls-1" d="M15.29,11.78a.58.58,0,0,1-.46-.23.89.89,0,0,1,0-1.1,3.75,3.75,0,0,1,6,0,.89.89,0,0,1,0,1.1.59.59,0,0,1-.93,0,2.59,2.59,0,0,0-4.11,0,.61.61,0,0,1-.46.23"/><path class="cls-1" d="M8.44,6.21A.56.56,0,0,1,8,6a.89.89,0,0,1,0-1.1A12.81,12.81,0,0,1,17.78,0,12.73,12.73,0,0,1,27.6,4.82a.9.9,0,0,1,0,1.11.59.59,0,0,1-.93,0,11.55,11.55,0,0,0-8.87-4.37h0A11.58,11.58,0,0,0,8.9,6a.62.62,0,0,1-.46.23"/><path class="cls-1" d="M11.93,9a.61.61,0,0,1-.46-.22.9.9,0,0,1,0-1.1,8,8,0,0,1,12.66,0,.9.9,0,0,1,0,1.1.58.58,0,0,1-.92,0,6.82,6.82,0,0,0-10.82,0,.56.56,0,0,1-.46.23"/></g></svg>