<svg xmlns="http://www.w3.org/2000/svg" viewBox="0 0 256.64 79.35"><defs><style>.cls-1{fill:#fff;}</style></defs><title>Domotica web original 2.0 logo</title><g id="Capa_2" data-name="Capa 2"><path class="cls-1" d="M59.7,42.72l-2.78-4.36,0-.07c-.28-.47-.76-1.24-1.45-2.31s-1.29-2-1.78-2.7q-5.17-8.14-8-12.86a.88.88,0,0,1-.16-.55,1.06,1.06,0,0,1,.49-.94,1.07,1.07,0,0,1,.51-.13,1,1,0,0,1,.94.52q3.86,6.33,8,12.83L57.28,35s.66,1,1.91,3l1.39,2.2c.62-1,1.27-2.07,1.94-3.23q3.25-5.49,10.31-17.55a1,1,0,0,1,.94-.52,1,1,0,0,1,.51.13,1,1,0,0,1,.49.93,1.27,1.27,0,0,1-.13.55q-7,12.06-10.31,17.56c-1,1.64-1.75,2.81-2.14,3.52-.1.18-.26.43-.47.76a3.7,3.7,0,0,1-.46.66,1.21,1.21,0,0,1-.68.23,1,1,0,0,1-.88-.52"/><path class="cls-1" d="M81.14,42a4.32,4.32,0,0,1,0-.64q0-11.35,0-20.95V20a.88.88,0,0,1,.32-.7,1.24,1.24,0,0,1,.81-.27l5.24,0h5.26L101,19a1.07,1.07,0,0,1,.76.29A1,1,0,0,1,102,20a1,1,0,0,1-.31.74.94.94,0,0,1-.72.32l-8.22,0h-.32q-6,0-9.21,0c0,2.56,0,6.12,0,10.67h6.15c.84,0,1.89,0,3.16,0q1.53,0,2,0a1,1,0,0,1,.76.29,1,1,0,0,1,.31.74,1.18,1.18,0,0,1-.34.74,1,1,0,0,1-.73.33q-.48,0-2,0c-1.27,0-2.32,0-3.16,0H83.2v6.69h17.69a1,1,0,0,1,1,1,1.08,1.08,0,0,1-.3.75,1,1,0,0,1-.76.32H84.21c-.59,0-1.22,0-1.91,0s-1-.23-1.16-.71"/><path class="cls-1" d="M109.16,42.8a1,1,0,0,1-.32-.76q0-4.4,0-11.67c0-4.85,0-8.45,0-10.83a1.24,1.24,0,0,1,.07-.32,1,1,0,0,1,.34-.6,1,1,0,0,1,.69-.24l3.4-.1c1.68-.06,3.24-.09,4.69-.09a46.74,46.74,0,0,1,6.2.35,10.85,10.85,0,0,1,4.27,1.33A6.53,6.53,0,0,1,131,22.71a9.84,9.84,0,0,1,.91,4.11,9.51,9.51,0,0,1-.75,3.72,7.38,7.38,0,0,1-2.36,3.1,5.37,5.37,0,0,1-1.55.9l1.94,2.88.1.13c1.14,1.77,1.93,3,2.36,3.56a1,1,0,0,1,.19.61,1,1,0,0,1-1,1,1.1,1.1,0,0,1-.88-.41c-.32-.44-1.13-1.64-2.42-3.63l-.1-.12c-1.08-1.66-1.85-2.8-2.33-3.4l-.9.16a41,41,0,0,1-6.59.42l-3.59,0-3-.06q0,5.66,0,6.36a1.06,1.06,0,0,1-.29.76,1,1,0,0,1-.74.31,1.05,1.05,0,0,1-.75-.31m8.47-9.13a38.27,38.27,0,0,0,6.18-.39,8.67,8.67,0,0,0,3.52-1.18,5.35,5.35,0,0,0,1.91-2.44,7.6,7.6,0,0,0,.55-2.84,7.67,7.67,0,0,0-.65-3.14,4.41,4.41,0,0,0-1.74-2.07,9.81,9.81,0,0,0-3.4-1,42.33,42.33,0,0,0-5.91-.35c-1.45,0-3,0-4.63.1l-2.45.06q0,6.8,0,13.12l3,.07Z"/><path class="cls-1" d="M139.05,42.67a1.11,1.11,0,0,1-.37-.82l-.16-21.53a1.22,1.22,0,0,1,.29-.81,1,1,0,0,1,.77-.35c2.14,0,3.87,0,5.21,0,1.05,0,2.37,0,3.94,0q2.07,0,3.27.12a14.81,14.81,0,0,1,4.91,1.37,9.3,9.3,0,0,1,4.27,4.06,13.1,13.1,0,0,1,1.55,6.45,14.47,14.47,0,0,1-1.52,6.7,8.2,8.2,0,0,1-4,4,16.33,16.33,0,0,1-5,1q-2.85.26-9.73.26h-2.55a1.43,1.43,0,0,1-.86-.44m3.6-1.66c4.06,0,7.17-.09,9.35-.26a19.7,19.7,0,0,0,3.42-.5,5.76,5.76,0,0,0,2.25-1.13,7.28,7.28,0,0,0,1.73-2.35,12.56,12.56,0,0,0,1.23-5.59A11.93,11.93,0,0,0,159.56,26,7.16,7.16,0,0,0,156,22.49a15.19,15.19,0,0,0-2.94-1,19.38,19.38,0,0,0-3.85-.31c-1.64,0-3.13,0-4.46,0q-1.59,0-4.17,0L140.75,41Z"/><path class="cls-1" d="M192.21,42.88a1.08,1.08,0,0,1-.53-.14,1.24,1.24,0,0,1-.44-.37v0l-2.13-3.75-1.23-2.11v0l-.07-.09-8.85,0h-7.73l-3.43,6a1,1,0,0,1-.38.37,1.16,1.16,0,0,1-.52.14,1,1,0,0,1-.55-.16.94.94,0,0,1-.52-.84,1.1,1.1,0,0,1,.16-.55l1.49-2.62q5.91-10.41,8.63-15.06c.89-1.64,1.54-2.79,2-3.46l.55-1a1,1,0,0,1,.94-.52,1,1,0,0,1,.91.58q1.32,2.49,3.13,5.63T186,29l1.33,2.3.87,1.52c.93,1.61,1.44,2.49,1.55,2.61l.58,1c.07.11.27.47.62,1.1.62,1,1.34,2.34,2.16,3.85a1,1,0,0,1-.38,1.38,1,1,0,0,1-.49.13m-7.14-11.31q-4-6.85-5.56-9.73l-1.59,2.75-5.49,9.66c1.48,0,2.8,0,4,0h10.23Z"/><path class="cls-1" d="M222.73,43a1,1,0,0,1-.65-.26q-11.57-10.8-15.71-14.8l-4.56-4.4-.1-.1-1.29-1.19,0,9.83q0,7.92,0,9.79a1.09,1.09,0,0,1-.29.76.89.89,0,0,1-.75.27,1,1,0,0,1-.74-.3,1,1,0,0,1-.32-.73l0-11.54,0-10.38a1,1,0,0,1,.31-.74.94.94,0,0,1,.73-.32,1.36,1.36,0,0,1,.84.32c1.44,1.27,2.43,2.18,3,2.71l.1.1,4.55,4.43,6.89,6.5c.78.71,3.12,2.91,7,6.59q0-13.16-.07-19.75A1,1,0,0,1,222,19a1.05,1.05,0,0,1,.74-.31,1,1,0,0,1,1,1c0,2.61,0,6.28.05,11s0,8.44,0,11.13v0a1.05,1.05,0,0,1-.29.75,1,1,0,0,1-.75.31Z"/><path class="cls-1" d="M256.33,19.33a1,1,0,0,1,.31.73,1.1,1.1,0,0,1-.31.75,1,1,0,0,1-.73.32L244,21.1q0,14.08.1,21a1.07,1.07,0,0,1-.29.76,1,1,0,0,1-.75.31,1.09,1.09,0,0,1-.76-.29,1,1,0,0,1-.3-.75q-.1-7-.1-21.07-4.53,0-11.67.09a1,1,0,0,1-.73-.32,1.05,1.05,0,0,1-.31-.74.88.88,0,0,1,.28-.73,1,1,0,0,1,.73-.31C233.82,19,237.08,19,240,19l4.72,0h1l5,0,4.91,0a1,1,0,0,1,.73.3"/><path class="cls-1" d="M94.42,72.92a7.58,7.58,0,0,0,6.18-3l3.28,3.38a12.39,12.39,0,0,1-17.95,1,12.13,12.13,0,0,1,.07-17A11.76,11.76,0,0,1,94.55,54a12.15,12.15,0,0,1,9.46,4.3l-3.18,3.62a7.46,7.46,0,0,0-6-3,7,7,0,0,0-4.94,1.88,6.59,6.59,0,0,0-2,5.1A6.92,6.92,0,0,0,89.73,71a6.39,6.39,0,0,0,4.69,1.94"/><path class="cls-1" d="M126.75,74.28a12.51,12.51,0,0,1-17.15,0,12,12,0,0,1,0-16.92,12.51,12.51,0,0,1,17.15,0,12,12,0,0,1,0,16.92M125,65.84a7.52,7.52,0,0,0-2-5.24,6.49,6.49,0,0,0-9.69,0,7.9,7.9,0,0,0,0,10.46,6.53,6.53,0,0,0,9.69,0,7.47,7.47,0,0,0,2-5.22"/><polygon class="cls-1" points="155.13 62.99 148.92 75.54 145.87 75.54 139.69 62.99 139.69 77.45 134.57 77.45 134.57 54.48 141.5 54.48 147.41 67.1 153.36 54.48 160.26 54.48 160.26 77.45 155.13 77.45 155.13 62.99"/><polygon class="cls-1" points="181.68 54.48 181.68 58.98 171.03 58.98 171.03 63.95 181.15 63.95 181.15 68.45 171.03 68.45 171.03 77.45 165.91 77.45 165.91 54.48 181.68 54.48"/><path class="cls-1" d="M205.33,74.28a12.51,12.51,0,0,1-17.15,0,12,12,0,0,1,0-16.92,12.51,12.51,0,0,1,17.15,0,12,12,0,0,1,0,16.92m-1.74-8.44a7.52,7.52,0,0,0-2-5.24,6.49,6.49,0,0,0-9.69,0,7.9,7.9,0,0,0,0,10.46,6.53,6.53,0,0,0,9.69,0,7.47,7.47,0,0,0,2-5.22"/><path class="cls-1" d="M231.77,62.11c0,3.68-1.45,6-4.37,7.13l5.82,8.21h-6.31l-5.09-7.33h-3.55v7.33h-5.12v-23h8.7q5.35,0,7.64,1.8t2.28,5.82m-6.17,2.72a3.48,3.48,0,0,0,1-2.71,2.89,2.89,0,0,0-1-2.54,6.26,6.26,0,0,0-3.44-.69h-3.85v6.8H222a5.51,5.51,0,0,0,3.58-.86"/><polygon class="cls-1" points="246.29 58.92 246.29 77.45 241.17 77.45 241.17 58.92 234.66 58.92 234.66 54.49 252.8 54.49 252.8 58.92 246.29 58.92"/><path class="cls-1" d="M55.8,62a1.91,1.91,0,0,1-1.55-.8L28.85,25.47,3.45,61.16A1.9,1.9,0,1,1,.35,59l27-37.87a1.9,1.9,0,0,1,3.1,0L57.35,59a1.9,1.9,0,0,1-.45,2.65,1.87,1.87,0,0,1-1.1.35"/><path class="cls-1" d="M33.28,47.53a5.18,5.18,0,1,1-5.18-5.18,5.18,5.18,0,0,1,5.18,5.18"/><path class="cls-1" d="M72,79.35H28a1.78,1.78,0,0,1-1.78-1.77v-29a1.78,1.78,0,1,1,3.55,0V75.8H70.25V48.61a1.78,1.78,0,1,1,3.55,0v29A1.77,1.77,0,0,1,72,79.35"/><path class="cls-1" d="M25.12,19.35a1,1,0,0,1-.76-.37,1.46,1.46,0,0,1,0-1.81,6.16,6.16,0,0,1,9.78,0,1.46,1.46,0,0,1,0,1.81,1,1,0,0,1-1.51,0,4.26,4.26,0,0,0-6.76,0,1,1,0,0,1-.75.38"/><path class="cls-1" d="M13.86,10.2a1,1,0,0,1-.76-.37A1.46,1.46,0,0,1,13.1,8c4.29-5.15,10-8,16.1-8S41,2.8,45.34,7.92a1.46,1.46,0,0,1,0,1.81,1,1,0,0,1-1.51,0A19,19,0,0,0,29.26,2.56h-.05A19,19,0,0,0,14.62,9.82a1,1,0,0,1-.76.38"/><path class="cls-1" d="M19.6,14.72a1,1,0,0,1-.76-.37,1.46,1.46,0,0,1,0-1.81c5.72-6.86,15-6.88,20.79-.06a1.46,1.46,0,0,1,0,1.81,1,1,0,0,1-1.51,0c-4.91-5.83-12.88-5.81-17.76.06a1,1,0,0,1-.76.37"/></g></svg>